<svg xmlns="http://www.w3.org/2000/svg" viewBox="0 0 328.14 114.23">
  <path fill="#434343" d="M30.6 2.29H42L72.4 80.1H61l-8.5-23.44H19.59l-8.72 23.43H.19zm-7.74 45.66h26.37l-13-36.29H36zM86.07 11H60.13V2.29h62.23V11H96.42v69.09H86.07zM239.92 70.4a26.22 26.22 0 0 1-5.18 5.23 29.89 29.89 0 0 1-6.16 3.6 31.63 31.63 0 0 1-6.76 2.07 37.16 37.16 0 0 1-6.87.65 35.3 35.3 0 0 1-27.24-12 37.84 37.84 0 0 1-7.3-12.53 43.75 43.75 0 0 1-2.51-14.71 55.13 55.13 0 0 1 2.34-16.18 39.82 39.82 0 0 1 7-13.46 33.89 33.89 0 0 1 11.55-9.21A36 36 0 0 1 215 .43a46.92 46.92 0 0 1 11.9 1.47 30.22 30.22 0 0 1 10 4.63 27.54 27.54 0 0 1 7.41 8 31.5 31.5 0 0 1 4.09 11.71h-10.33a20.84 20.84 0 0 0-2.83-7.63 18 18 0 0 0-5.12-5.34 22.7 22.7 0 0 0-6.92-3.11 31.75 31.75 0 0 0-8.23-1 23.67 23.67 0 0 0-20.43 10.3A32.55 32.55 0 0 0 189.79 30a48.58 48.58 0 0 0-1.53 12.15A39.22 39.22 0 0 0 190 53.89a30.53 30.53 0 0 0 5.12 9.92 25 25 0 0 0 8.34 6.87A24.71 24.71 0 0 0 215 73.23a27.86 27.86 0 0 0 10.73-2 23.07 23.07 0 0 0 8-5.39 21.69 21.69 0 0 0 4.85-8.06 27.24 27.24 0 0 0 1.36-10h-24.87v-8.66h34.11v41h-6.54zM316.42 25.72a21.94 21.94 0 0 0-2.83-7.25 18.36 18.36 0 0 0-4.85-5.18 21.05 21.05 0 0 0-6.48-3.11 27.48 27.48 0 0 0-7.63-1 25.28 25.28 0 0 0-11.93 2.62 23.53 23.53 0 0 0-8.17 7 30.33 30.33 0 0 0-4.74 10.08 45 45 0 0 0-1.53 11.77 50.35 50.35 0 0 0 1.53 12.59 30.08 30.08 0 0 0 4.74 10.35 23.4 23.4 0 0 0 8.23 7 25.61 25.61 0 0 0 12 2.62 23.09 23.09 0 0 0 9.1-1.69 20.57 20.57 0 0 0 6.87-4.69 21.58 21.58 0 0 0 4.52-7.14 29.67 29.67 0 0 0 2-8.94h10.35q-1.6 14.63-10.26 22.91t-23.48 8.28a37 37 0 0 1-15.8-3.16 31.54 31.54 0 0 1-11.22-8.61 36.71 36.71 0 0 1-6.7-12.86 54.84 54.84 0 0 1-2.23-15.91 51.9 51.9 0 0 1 2.4-16 38.45 38.45 0 0 1 7-13 32.9 32.9 0 0 1 11.5-8.77 37.15 37.15 0 0 1 15.92-3.2 40 40 0 0 1 11.55 1.63 31.06 31.06 0 0 1 9.72 4.8 27 27 0 0 1 7.08 7.9 29 29 0 0 1 3.71 11z"/>
  <path fill="#231f20" d="M7.1 93.14h2.33l6.2 15.86H13.3l-1.73-4.78H4.85L3.07 109H.9zm-1.58 9.31h5.38l-2.65-7.4zM26.26 109h-1.89v-1.56a2.83 2.83 0 0 1-1.47 1.39 5.48 5.48 0 0 1-2.2.43 5.18 5.18 0 0 1-2.32-.49 4.71 4.71 0 0 1-1.65-1.32 5.83 5.83 0 0 1-1-1.92 7.86 7.86 0 0 1-.33-2.31 8 8 0 0 1 .32-2.3 5.59 5.59 0 0 1 1-1.9 4.67 4.67 0 0 1 1.65-1.3 5.23 5.23 0 0 1 2.3-.48 5.67 5.67 0 0 1 1 .09 4.89 4.89 0 0 1 1 .3 4.36 4.36 0 0 1 1 .56 3 3 0 0 1 .77.86v-5.91h1.89zm-8.68-4.08a4.22 4.22 0 0 0 .64 1.37 3.16 3.16 0 0 0 1.11 1 3.37 3.37 0 0 0 1.59.36 3.12 3.12 0 0 0 2.71-1.37 4.14 4.14 0 0 0 .61-1.39 6.73 6.73 0 0 0 0-3.21 4.05 4.05 0 0 0-.63-1.39 3.25 3.25 0 0 0-1.12-1 3.51 3.51 0 0 0-1.67-.37 3.23 3.23 0 0 0-1.63.38 3 3 0 0 0-1.06 1 4.35 4.35 0 0 0-.58 1.42 7.55 7.55 0 0 0-.18 1.64 5.86 5.86 0 0 0 .21 1.57zM33.79 109h-2L27.5 97.52h2.11l3.22 9.58L36 97.52h2zM48.93 109a3.12 3.12 0 0 1-.58.19 3.46 3.46 0 0 1-.78.08 1.6 1.6 0 0 1-1.17-.42 1.83 1.83 0 0 1-.4-1.35 4.62 4.62 0 0 1-1.81 1.36 5.85 5.85 0 0 1-2.23.42 6 6 0 0 1-1.48-.18 3.33 3.33 0 0 1-1.21-.57 2.76 2.76 0 0 1-.81-1 3.32 3.32 0 0 1-.3-1.48 3.38 3.38 0 0 1 .33-1.6 2.81 2.81 0 0 1 .88-1 4.38 4.38 0 0 1 1.25-.59 13 13 0 0 1 1.43-.34q.78-.16 1.48-.23a8 8 0 0 0 1.22-.22 2.06 2.06 0 0 0 .83-.42 1 1 0 0 0 .31-.81 2 2 0 0 0-.22-1 1.53 1.53 0 0 0-.59-.58 2.42 2.42 0 0 0-.82-.27 6.15 6.15 0 0 0-.9-.07 4 4 0 0 0-2 .46 1.93 1.93 0 0 0-.87 1.72h-1.92a4.08 4.08 0 0 1 .43-1.8 3.37 3.37 0 0 1 1.07-1.19 4.48 4.48 0 0 1 1.53-.66 8.11 8.11 0 0 1 1.82-.2 10.74 10.74 0 0 1 1.54.11 4 4 0 0 1 1.39.46 2.67 2.67 0 0 1 1 1 3.1 3.1 0 0 1 .38 1.62v5.91a4.39 4.39 0 0 0 .08 1q.08.31.52.31a1.73 1.73 0 0 0 .58-.11zm-3.07-5.91a2.31 2.31 0 0 1-.67.29q-.4.11-.84.19c-.3.05-.61.1-.94.13s-.66.09-1 .14a7.86 7.86 0 0 0-.89.22 2.43 2.43 0 0 0-.73.37 1.76 1.76 0 0 0-.5.59 1.88 1.88 0 0 0-.19.89 1.54 1.54 0 0 0 .19.79 1.58 1.58 0 0 0 .49.52 2.05 2.05 0 0 0 .7.29 3.86 3.86 0 0 0 .84.09 4.47 4.47 0 0 0 1.6-.26 3.36 3.36 0 0 0 1.09-.64 2.54 2.54 0 0 0 .62-.84 2.14 2.14 0 0 0 .2-.86zM50.13 97.52h1.78v1.82a3.91 3.91 0 0 1 1.54-1.58 4.53 4.53 0 0 1 2.19-.51 5 5 0 0 1 1.89.31 3.12 3.12 0 0 1 1.22.87 3.22 3.22 0 0 1 .66 1.32 7.14 7.14 0 0 1 .19 1.7V109h-1.84v-7.78a2.28 2.28 0 0 0-.62-1.69 2.31 2.31 0 0 0-1.71-.62 3.85 3.85 0 0 0-1.5.27 2.81 2.81 0 0 0-1.06.76 3.26 3.26 0 0 0-.63 1.14 4.65 4.65 0 0 0-.21 1.43V109h-1.9zM69.74 101.21a2.66 2.66 0 0 0-2.85-2.29 3.52 3.52 0 0 0-1.71.38 3 3 0 0 0-1.1 1 4.2 4.2 0 0 0-.59 1.43 7.81 7.81 0 0 0-.18 1.68 6.39 6.39 0 0 0 .19 1.59 4.16 4.16 0 0 0 .59 1.34 3 3 0 0 0 1 .95 3.11 3.11 0 0 0 1.54.36 3.07 3.07 0 0 0 2.18-.75 3.31 3.31 0 0 0 1-2.06h1.93a5.34 5.34 0 0 1-1.6 3.29 4.94 4.94 0 0 1-3.47 1.18 5.85 5.85 0 0 1-2.32-.43 4.61 4.61 0 0 1-1.69-1.21 5.19 5.19 0 0 1-1-1.86 7.73 7.73 0 0 1-.34-2.37 8.44 8.44 0 0 1 .33-2.41 5.58 5.58 0 0 1 1-2 4.77 4.77 0 0 1 1.69-1.31 5.55 5.55 0 0 1 2.39-.48 7 7 0 0 1 1.83.23 4.63 4.63 0 0 1 1.52.72 3.77 3.77 0 0 1 1.08 1.23 4.68 4.68 0 0 1 .52 1.77zM83.12 105.37a4.68 4.68 0 0 1-1.67 2.91 5.14 5.14 0 0 1-3.25 1 5.79 5.79 0 0 1-2.39-.46 4.81 4.81 0 0 1-1.7-1.26 5.27 5.27 0 0 1-1-1.91 9.19 9.19 0 0 1-.39-2.42 7 7 0 0 1 .4-2.39 5.73 5.73 0 0 1 1.12-1.9 5.09 5.09 0 0 1 1.71-1.24 5.22 5.22 0 0 1 2.17-.45 4.72 4.72 0 0 1 2.54.63 5 5 0 0 1 1.62 1.61 6.39 6.39 0 0 1 .84 2.13 9.16 9.16 0 0 1 .19 2.2H74.7a4.56 4.56 0 0 0 .18 1.43 3.24 3.24 0 0 0 .65 1.2 3.18 3.18 0 0 0 1.13.83 3.9 3.9 0 0 0 1.62.31 3.29 3.29 0 0 0 2-.56 2.67 2.67 0 0 0 1-1.69zm-1.82-3.2a3.88 3.88 0 0 0-.3-1.27 3.24 3.24 0 0 0-3-2 3.3 3.3 0 0 0-1.32.25 3.07 3.07 0 0 0-1 .7 3.36 3.36 0 0 0-.67 1 3.94 3.94 0 0 0-.29 1.26zM95 109h-1.92v-1.56a2.83 2.83 0 0 1-1.47 1.39 5.48 5.48 0 0 1-2.2.43 5.18 5.18 0 0 1-2.32-.49 4.71 4.71 0 0 1-1.65-1.32 5.83 5.83 0 0 1-1-1.92 7.86 7.86 0 0 1-.33-2.31 8 8 0 0 1 .32-2.3 5.59 5.59 0 0 1 1-1.9A4.67 4.67 0 0 1 87 97.73a5.23 5.23 0 0 1 2.3-.48 5.67 5.67 0 0 1 1 .09 4.89 4.89 0 0 1 1 .3 4.36 4.36 0 0 1 1 .56 3 3 0 0 1 .77.86v-5.92H95zm-8.68-4.08a4.22 4.22 0 0 0 .64 1.37 3.16 3.16 0 0 0 1.11 1 3.37 3.37 0 0 0 1.59.36 3.12 3.12 0 0 0 2.71-1.37 4.14 4.14 0 0 0 .61-1.39 6.73 6.73 0 0 0 0-3.21 4.05 4.05 0 0 0-.63-1.39 3.25 3.25 0 0 0-1.12-1 3.51 3.51 0 0 0-1.67-.37 3.23 3.23 0 0 0-1.63.38 3 3 0 0 0-1.06 1 4.35 4.35 0 0 0-.58 1.42 7.55 7.55 0 0 0-.18 1.64 5.86 5.86 0 0 0 .18 1.57zM106.31 94.92H101v-1.78h12.69v1.78h-5.29V109h-2.11zM121.58 105.37a4.68 4.68 0 0 1-1.67 2.91 5.14 5.14 0 0 1-3.25 1 5.79 5.79 0 0 1-2.39-.46 4.81 4.81 0 0 1-1.7-1.26 5.27 5.27 0 0 1-1-1.91 9.19 9.19 0 0 1-.39-2.42 7 7 0 0 1 .4-2.39 5.73 5.73 0 0 1 1.12-1.9 5.09 5.09 0 0 1 1.71-1.24 5.22 5.22 0 0 1 2.17-.45 4.72 4.72 0 0 1 2.54.63 5 5 0 0 1 1.62 1.61 6.39 6.39 0 0 1 .84 2.13 9.16 9.16 0 0 1 .19 2.2h-8.6a4.56 4.56 0 0 0 .18 1.43 3.24 3.24 0 0 0 .65 1.2 3.18 3.18 0 0 0 1.13.83 3.9 3.9 0 0 0 1.62.31 3.29 3.29 0 0 0 2-.56 2.67 2.67 0 0 0 1-1.69zm-1.82-3.2a3.88 3.88 0 0 0-.3-1.27 3.24 3.24 0 0 0-3-2 3.3 3.3 0 0 0-1.32.25 3.07 3.07 0 0 0-1 .7 3.36 3.36 0 0 0-.67 1 3.94 3.94 0 0 0-.29 1.26zM123.27 93.14h1.89V109h-1.89zM137.34 105.37a4.68 4.68 0 0 1-1.67 2.91 5.14 5.14 0 0 1-3.25 1 5.79 5.79 0 0 1-2.39-.46 4.81 4.81 0 0 1-1.7-1.26 5.27 5.27 0 0 1-1-1.91 9.19 9.19 0 0 1-.39-2.42 7 7 0 0 1 .4-2.39 5.73 5.73 0 0 1 1.12-1.9 5.09 5.09 0 0 1 1.71-1.24 5.22 5.22 0 0 1 2.17-.45 4.72 4.72 0 0 1 2.54.63 5 5 0 0 1 1.62 1.61 6.39 6.39 0 0 1 .84 2.13 9.16 9.16 0 0 1 .19 2.2h-8.6a4.56 4.56 0 0 0 .18 1.43 3.24 3.24 0 0 0 .65 1.2 3.18 3.18 0 0 0 1.13.83 3.9 3.9 0 0 0 1.62.31 3.29 3.29 0 0 0 2-.56 2.67 2.67 0 0 0 1-1.69zm-1.82-3.2a3.88 3.88 0 0 0-.3-1.27 3.24 3.24 0 0 0-3-2 3.3 3.3 0 0 0-1.32.25 3.07 3.07 0 0 0-1 .7 3.36 3.36 0 0 0-.67 1 3.94 3.94 0 0 0-.29 1.26zM138.6 101.94h6.4v1.78h-6.4zM159.19 107a5.35 5.35 0 0 1-1.06 1.07 6.11 6.11 0 0 1-1.26.73 6.45 6.45 0 0 1-1.38.42 7.6 7.6 0 0 1-1.4.13 7.2 7.2 0 0 1-5.56-2.45 7.72 7.72 0 0 1-1.49-2.56 8.91 8.91 0 0 1-.51-3 11.25 11.25 0 0 1 .48-3.3 8.12 8.12 0 0 1 1.42-2.75 6.91 6.91 0 0 1 2.36-1.88 7.34 7.34 0 0 1 3.3-.7 9.57 9.57 0 0 1 2.43.3 6.15 6.15 0 0 1 2 .94 5.61 5.61 0 0 1 1.51 1.63 6.42 6.42 0 0 1 .83 2.39h-2.11a4.25 4.25 0 0 0-.58-1.56 3.68 3.68 0 0 0-1-1.09 4.63 4.63 0 0 0-1.41-.63 6.48 6.48 0 0 0-1.68-.21 4.83 4.83 0 0 0-4.17 2.1 6.66 6.66 0 0 0-1 2.16 9.92 9.92 0 0 0-.31 2.48 8 8 0 0 0 .36 2.39 6.23 6.23 0 0 0 1 2 5.1 5.1 0 0 0 1.7 1.4 5 5 0 0 0 2.35.52 5.69 5.69 0 0 0 2.19-.4 4.71 4.71 0 0 0 1.63-1.1 4.43 4.43 0 0 0 1-1.64 5.57 5.57 0 0 0 .28-2h-5.07v-1.78h7V109h-1.33zM173.13 105.37a4.67 4.67 0 0 1-1.67 2.91 5.13 5.13 0 0 1-3.25 1 5.79 5.79 0 0 1-2.39-.46 4.81 4.81 0 0 1-1.7-1.26 5.28 5.28 0 0 1-1-1.91 9.21 9.21 0 0 1-.39-2.42 7 7 0 0 1 .4-2.39 5.7 5.7 0 0 1 1.12-1.9 5.09 5.09 0 0 1 1.71-1.24 5.22 5.22 0 0 1 2.17-.45 4.72 4.72 0 0 1 2.54.63 5 5 0 0 1 1.62 1.61 6.38 6.38 0 0 1 .84 2.13 9.13 9.13 0 0 1 .19 2.2h-8.6a4.58 4.58 0 0 0 .18 1.43 3.26 3.26 0 0 0 .64 1.2 3.19 3.19 0 0 0 1.13.83 3.91 3.91 0 0 0 1.62.31 3.28 3.28 0 0 0 2-.56 2.67 2.67 0 0 0 1-1.69zm-1.82-3.2a3.87 3.87 0 0 0-.3-1.27 3.16 3.16 0 0 0-1.72-1.72 3.26 3.26 0 0 0-1.29-.25 3.3 3.3 0 0 0-1.32.25 3.06 3.06 0 0 0-1 .7 3.35 3.35 0 0 0-.67 1 3.92 3.92 0 0 0-.29 1.26zM174.71 97.52h1.78v1.82a3.92 3.92 0 0 1 1.54-1.58 4.53 4.53 0 0 1 2.19-.51 5 5 0 0 1 1.89.31 3.11 3.11 0 0 1 1.22.87 3.22 3.22 0 0 1 .66 1.32 7.12 7.12 0 0 1 .19 1.7V109h-1.89v-7.78a2.28 2.28 0 0 0-.62-1.69 2.31 2.31 0 0 0-1.71-.62 3.85 3.85 0 0 0-1.5.27 2.8 2.8 0 0 0-1.06.76 3.25 3.25 0 0 0-.63 1.14 4.66 4.66 0 0 0-.21 1.43V109h-1.89zM196.31 105.37a4.67 4.67 0 0 1-1.67 2.91 5.13 5.13 0 0 1-3.25 1 5.79 5.79 0 0 1-2.39-.46 4.81 4.81 0 0 1-1.7-1.26 5.28 5.28 0 0 1-1-1.91 9.21 9.21 0 0 1-.39-2.42 7 7 0 0 1 .4-2.39 5.7 5.7 0 0 1 1.12-1.9 5.09 5.09 0 0 1 1.71-1.24 5.22 5.22 0 0 1 2.17-.45 4.72 4.72 0 0 1 2.54.63 5 5 0 0 1 1.62 1.61 6.38 6.38 0 0 1 .84 2.13 9.13 9.13 0 0 1 .19 2.2h-8.6a4.58 4.58 0 0 0 .18 1.43 3.26 3.26 0 0 0 .64 1.2 3.19 3.19 0 0 0 1.13.83 3.91 3.91 0 0 0 1.62.31 3.28 3.28 0 0 0 2-.56 2.67 2.67 0 0 0 1-1.69zm-1.82-3.2a3.87 3.87 0 0 0-.3-1.27 3.16 3.16 0 0 0-1.72-1.72 3.26 3.26 0 0 0-1.29-.25 3.3 3.3 0 0 0-1.32.25 3.06 3.06 0 0 0-1 .7 3.35 3.35 0 0 0-.67 1 3.92 3.92 0 0 0-.29 1.26zM200.51 97.52h2.29v1.67h-2.29v7.14a2.06 2.06 0 0 0 .06.53.55.55 0 0 0 .21.31.93.93 0 0 0 .43.14 6.47 6.47 0 0 0 .72 0h.87V109h-1.44a6.81 6.81 0 0 1-1.26-.1 1.85 1.85 0 0 1-.84-.37 1.57 1.57 0 0 1-.48-.76 4.38 4.38 0 0 1-.16-1.29v-7.29h-2v-1.67h2v-3.45h1.89zM206.34 95.45h-1.89v-2.31h1.89zm-1.89 2.07h1.89V109h-1.89zM216.52 101.21a2.66 2.66 0 0 0-2.85-2.29 3.52 3.52 0 0 0-1.71.38 3.06 3.06 0 0 0-1.1 1 4.21 4.21 0 0 0-.59 1.43 7.85 7.85 0 0 0-.18 1.68 6.39 6.39 0 0 0 .19 1.56 4.15 4.15 0 0 0 .59 1.34 3 3 0 0 0 1 .95 3.11 3.11 0 0 0 1.54.36 3.07 3.07 0 0 0 2.18-.75 3.31 3.31 0 0 0 1-2.06h1.93a5.34 5.34 0 0 1-1.6 3.29 4.94 4.94 0 0 1-3.47 1.18 5.85 5.85 0 0 1-2.32-.43 4.62 4.62 0 0 1-1.69-1.21 5.19 5.19 0 0 1-1-1.86 7.75 7.75 0 0 1-.34-2.37 8.42 8.42 0 0 1 .33-2.41 5.58 5.58 0 0 1 1-2 4.76 4.76 0 0 1 1.69-1.31 5.55 5.55 0 0 1 2.39-.48 7 7 0 0 1 1.83.23 4.62 4.62 0 0 1 1.52.72 3.77 3.77 0 0 1 1.14 1.28 4.68 4.68 0 0 1 .52 1.77zM235.52 97.92a4.48 4.48 0 0 0-.58-1.48 3.75 3.75 0 0 0-1-1.06 4.3 4.3 0 0 0-1.32-.63 5.6 5.6 0 0 0-1.56-.21 5.15 5.15 0 0 0-2.43.53 4.8 4.8 0 0 0-1.63 1.44 6.17 6.17 0 0 0-1 2.06 9.18 9.18 0 0 0-.31 2.4 10.26 10.26 0 0 0 .31 2.57 6.12 6.12 0 0 0 1 2.11 4.79 4.79 0 0 0 1.68 1.43 5.22 5.22 0 0 0 2.45.53 4.7 4.7 0 0 0 1.86-.34 4.19 4.19 0 0 0 1.4-1 4.39 4.39 0 0 0 .92-1.46 6 6 0 0 0 .4-1.82h2.11a7.25 7.25 0 0 1-2.08 4.67 6.65 6.65 0 0 1-4.79 1.69 7.54 7.54 0 0 1-3.22-.64 6.44 6.44 0 0 1-2.29-1.76 7.5 7.5 0 0 1-1.37-2.62 11.2 11.2 0 0 1-.46-3.25 10.59 10.59 0 0 1 .49-3.26 7.84 7.84 0 0 1 1.43-2.66 6.71 6.71 0 0 1 2.34-1.79 7.57 7.57 0 0 1 3.25-.66 8.15 8.15 0 0 1 2.36.33 6.32 6.32 0 0 1 2 1 5.5 5.5 0 0 1 1.45 1.61 5.9 5.9 0 0 1 .76 2.23zM239.28 100.91a5.35 5.35 0 0 1 1.07-1.91 5.06 5.06 0 0 1 1.75-1.28 6.44 6.44 0 0 1 4.81 0 5 5 0 0 1 1.75 1.28 5.38 5.38 0 0 1 1.07 1.91 7.65 7.65 0 0 1 .36 2.37 7.54 7.54 0 0 1-.36 2.36 5.39 5.39 0 0 1-1.07 1.9 5 5 0 0 1-1.76 1.28 6.44 6.44 0 0 1-4.81 0 5.06 5.06 0 0 1-1.75-1.28 5.36 5.36 0 0 1-1.07-1.9 7.54 7.54 0 0 1-.36-2.36 7.65 7.65 0 0 1 .37-2.37zm1.92 4.22a3.86 3.86 0 0 0 .77 1.36 3.32 3.32 0 0 0 1.14.83 3.48 3.48 0 0 0 2.78 0 3.33 3.33 0 0 0 1.14-.83 3.88 3.88 0 0 0 .77-1.36 6.33 6.33 0 0 0 0-3.71 4 4 0 0 0-.77-1.37 3.26 3.26 0 0 0-1.14-.84 3.48 3.48 0 0 0-2.78 0 3.25 3.25 0 0 0-1.14.84 4 4 0 0 0-.77 1.37 6.33 6.33 0 0 0 0 3.71zM261.26 109h-1.78v-1.82a3.92 3.92 0 0 1-1.54 1.58 4.53 4.53 0 0 1-2.19.51 5 5 0 0 1-1.89-.31 3.11 3.11 0 0 1-1.22-.87 3.22 3.22 0 0 1-.66-1.32 7.11 7.11 0 0 1-.19-1.7v-7.55h1.89v7.78a2.28 2.28 0 0 0 .62 1.69 2.31 2.31 0 0 0 1.71.62 3.85 3.85 0 0 0 1.5-.27 2.81 2.81 0 0 0 1.06-.76 3.26 3.26 0 0 0 .63-1.14 4.66 4.66 0 0 0 .21-1.43v-6.49h1.89zM263.55 97.52h1.78v1.82a3.92 3.92 0 0 1 1.54-1.58 4.53 4.53 0 0 1 2.19-.51 5 5 0 0 1 1.89.31 3.11 3.11 0 0 1 1.22.87 3.22 3.22 0 0 1 .66 1.32 7.12 7.12 0 0 1 .19 1.7V109h-1.89v-7.78a2.28 2.28 0 0 0-.62-1.69 2.31 2.31 0 0 0-1.71-.62 3.85 3.85 0 0 0-1.5.27 2.8 2.8 0 0 0-1.06.76 3.25 3.25 0 0 0-.63 1.14 4.66 4.66 0 0 0-.21 1.43V109h-1.89zM276.51 105.39a2.09 2.09 0 0 0 .29 1.07 2.06 2.06 0 0 0 .7.68 3.17 3.17 0 0 0 1 .37 5.59 5.59 0 0 0 1.12.11 7 7 0 0 0 .93-.07 3.43 3.43 0 0 0 .9-.25 1.68 1.68 0 0 0 .68-.52 1.39 1.39 0 0 0 .27-.88 1.27 1.27 0 0 0-.32-.9 2.46 2.46 0 0 0-.84-.57 6.6 6.6 0 0 0-1.2-.37l-1.39-.3a13.27 13.27 0 0 1-1.38-.38 5 5 0 0 1-1.2-.58 2.57 2.57 0 0 1-1.18-2.29 2.76 2.76 0 0 1 .39-1.49 3.18 3.18 0 0 1 1-1 4.57 4.57 0 0 1 1.38-.58 6.35 6.35 0 0 1 1.52-.19 9.11 9.11 0 0 1 1.79.17 4.16 4.16 0 0 1 1.47.58 3 3 0 0 1 1 1.11 4.21 4.21 0 0 1 .44 1.75H282a1.85 1.85 0 0 0-.3-.92 2.06 2.06 0 0 0-.62-.59 2.71 2.71 0 0 0-.82-.32 4.31 4.31 0 0 0-.92-.1 5.57 5.57 0 0 0-.86.07 2.86 2.86 0 0 0-.79.23 1.54 1.54 0 0 0-.58.46 1.13 1.13 0 0 0-.22.71 1.05 1.05 0 0 0 .34.82 2.85 2.85 0 0 0 .88.52 7.54 7.54 0 0 0 1.2.36l1.33.3a14.1 14.1 0 0 1 1.39.38 4.5 4.5 0 0 1 1.2.59 2.89 2.89 0 0 1 .84.92 2.73 2.73 0 0 1 .32 1.38 3.21 3.21 0 0 1-.43 1.72 3.35 3.35 0 0 1-1.13 1.12 4.9 4.9 0 0 1-1.58.6 8.81 8.81 0 0 1-1.75.18 7.64 7.64 0 0 1-1.83-.21 4.63 4.63 0 0 1-1.52-.67 3.34 3.34 0 0 1-1.07-1.2 4.16 4.16 0 0 1-.44-1.81zM295.72 105.37a4.67 4.67 0 0 1-1.67 2.91 5.13 5.13 0 0 1-3.25 1 5.79 5.79 0 0 1-2.39-.46 4.81 4.81 0 0 1-1.7-1.26 5.28 5.28 0 0 1-1-1.91 9.21 9.21 0 0 1-.39-2.42 7 7 0 0 1 .4-2.39 5.7 5.7 0 0 1 1.12-1.9 5.09 5.09 0 0 1 1.71-1.24 5.22 5.22 0 0 1 2.17-.45 4.72 4.72 0 0 1 2.54.63 5 5 0 0 1 1.62 1.61 6.38 6.38 0 0 1 .84 2.13 9.13 9.13 0 0 1 .19 2.2h-8.6a4.58 4.58 0 0 0 .18 1.43 3.26 3.26 0 0 0 .64 1.2 3.19 3.19 0 0 0 1.13.83 3.91 3.91 0 0 0 1.62.31 3.28 3.28 0 0 0 2-.56 2.67 2.67 0 0 0 1-1.69zm-1.82-3.2a3.87 3.87 0 0 0-.3-1.27 3.16 3.16 0 0 0-1.72-1.72 3.26 3.26 0 0 0-1.29-.25 3.3 3.3 0 0 0-1.32.25 3.06 3.06 0 0 0-1 .7 3.35 3.35 0 0 0-.67 1 3.92 3.92 0 0 0-.29 1.26zM297.41 93.14h1.89V109h-1.89zM303.68 95.45h-1.89v-2.31h1.89zm-1.89 2.07h1.89V109h-1.89zM306.06 97.52h1.78v1.82a3.92 3.92 0 0 1 1.54-1.58 4.53 4.53 0 0 1 2.19-.51 5 5 0 0 1 1.89.31 3.11 3.11 0 0 1 1.22.87 3.22 3.22 0 0 1 .66 1.32 7.12 7.12 0 0 1 .19 1.7V109h-1.89v-7.78a2.28 2.28 0 0 0-.62-1.69 2.31 2.31 0 0 0-1.71-.62 3.85 3.85 0 0 0-1.5.27 2.8 2.8 0 0 0-1.06.76 3.25 3.25 0 0 0-.63 1.14 4.66 4.66 0 0 0-.21 1.43V109h-1.89zM327.77 108a6.06 6.06 0 0 1-1.3 4.24 5.23 5.23 0 0 1-4 1.41 7.85 7.85 0 0 1-1.63-.18 5 5 0 0 1-1.51-.58 3.51 3.51 0 0 1-1.12-1 3 3 0 0 1-.49-1.58h1.89a1.4 1.4 0 0 0 .32.87 2.35 2.35 0 0 0 .73.58 3.57 3.57 0 0 0 .94.32 5.12 5.12 0 0 0 1 .1 3.5 3.5 0 0 0 1.58-.32 3 3 0 0 0 1.07-.89 3.69 3.69 0 0 0 .61-1.37 7.8 7.8 0 0 0 .19-1.78v-.76a3.29 3.29 0 0 1-.62.92 3.49 3.49 0 0 1-.86.64 4.4 4.4 0 0 1-1 .39 4.53 4.53 0 0 1-1.08.13 5.07 5.07 0 0 1-2.25-.47 4.64 4.64 0 0 1-1.6-1.27 5.43 5.43 0 0 1-1-1.86 7.57 7.57 0 0 1-.32-2.23 8.6 8.6 0 0 1 .27-2.09 5.86 5.86 0 0 1 .89-2 4.82 4.82 0 0 1 1.52-1.4 5.11 5.11 0 0 1 2.51-.57 4.18 4.18 0 0 1 2 .48 3.39 3.39 0 0 1 1.49 1.43v-1.64h1.78zm-3.7-.94a3.09 3.09 0 0 0 1.06-1 4.71 4.71 0 0 0 .59-1.43 7 7 0 0 0 .19-1.6 6.31 6.31 0 0 0-.18-1.49 4.17 4.17 0 0 0-.57-1.32 3 3 0 0 0-1-.94 3 3 0 0 0-1.51-.36 3.26 3.26 0 0 0-1.56.34 3 3 0 0 0-1.06.92 3.89 3.89 0 0 0-.6 1.33 6.49 6.49 0 0 0-.19 1.58 7.93 7.93 0 0 0 .16 1.56 4.42 4.42 0 0 0 .53 1.41 3 3 0 0 0 1 1 2.88 2.88 0 0 0 1.56.39 3.06 3.06 0 0 0 1.58-.36z"/>
  <path fill="none" stroke="#231f20" stroke-miterlimit="10" stroke-width="1.4851" d="M1.05 87.76h324.5"/>
  <path fill="#7f5070" d="M165.66 40.9l-26.59-.07.15-9.76 26.51-.01-.07 9.84zM147.57 53.56h-26.52l.09-9.83 26.6-.01-.17 9.84z"/>
  <path fill="#68aeca" d="M121.14 43.72c.19 0 0 .39 0 .59v29.38a4.9 4.9 0 0 1-4.89 4.89 4.9 4.9 0 0 1-4.89-4.89V53.63a12.19 12.19 0 0 1 9.78-9.91zM139.22 31.07c.19 0 0 .39 0 .59V61a4.9 4.9 0 0 1-4.89 4.89 4.9 4.9 0 0 1-4.85-4.89V41a12.19 12.19 0 0 1 9.74-9.93z"/>
  <path fill="#e52c70" d="M165.66 40.9c-.19 0 0-.39 0-.59V10.94a4.9 4.9 0 0 1 4.89-4.89 4.9 4.9 0 0 1 4.89 4.89V31a12.19 12.19 0 0 1-9.78 9.9zM147.57 53.56c-.19 0 0-.39 0-.59V23.6a4.9 4.9 0 0 1 4.89-4.89 4.9 4.9 0 0 1 4.89 4.89v20.06a12.19 12.19 0 0 1-9.78 9.9z"/>
</svg>
